<?xml version="1.0" encoding="utf-8"?>
<!-- Generator: Adobe Illustrator 17.0.0, SVG Export Plug-In . SVG Version: 6.00 Build 0)  -->
<!DOCTYPE svg PUBLIC "-//W3C//DTD SVG 1.1//EN" "http://www.w3.org/Graphics/SVG/1.1/DTD/svg11.dtd">
<svg version="1.1" id="Layer_1" xmlns="http://www.w3.org/2000/svg" xmlns:xlink="http://www.w3.org/1999/xlink" x="0px" y="0px"
	 width="1100px" height="500px" viewBox="0 0 1100 500" enable-background="new 0 0 1100 500" xml:space="preserve">
<g>
	<path fill="#3D3C3E" d="M154.409,259.192c0,23.955-5.54,43.219-16.619,57.792s-26.55,21.859-46.413,21.859
		c-8.484,0-16.02-1.572-22.608-4.716s-12.227-7.76-16.918-13.849v77.704H8.282V173.703h42.321l-0.399,19.164
		c4.791-7.087,10.555-12.551,17.293-16.394c6.737-3.843,14.598-5.764,23.581-5.764c20.062,0,35.633,7.835,46.712,23.506
		s16.619,36.282,16.619,61.834V259.192z M110.69,256.048c0-15.271-2.545-27.648-7.636-37.13
		c-5.09-9.482-12.876-14.223-23.356-14.223c-6.588,0-12.202,1.347-16.843,4.042s-8.309,6.538-11.004,11.528v70.967
		c2.695,4.591,6.363,8.085,11.004,10.48s10.356,3.593,17.143,3.593c10.58,0,18.341-4.142,23.281-12.427
		c4.941-8.284,7.411-19.513,7.411-33.687L110.69,256.048z"/>
	<path fill="#3D3C3E" d="M205.251,335.699h-43.718V206.911h43.718V335.699z"/>
	<path fill="#3D3C3E" d="M288.008,225.206h0.898l24.854-51.503h49.407l-48.809,80.1l50.455,81.896h-49.258l-26.5-53.749
		l-26.5,53.749h-49.407l50.456-81.896l-48.958-80.1h49.108L288.008,225.206z"/>
	<path fill="#3D3C3E" d="M424.465,338.843c-24.155,0-43.019-7.411-56.594-22.233c-13.575-14.822-20.362-33.911-20.362-57.268v-5.989
		c0-24.255,6.588-44.117,19.763-59.588s31.291-23.157,54.348-23.057c21.759,0,38.453,6.663,50.081,19.988
		c11.628,13.325,17.442,31.266,17.442,53.824v22.608h-96.569l-0.449,0.898c0.699,11.079,4.067,20.062,10.106,26.949
		s14.997,10.331,26.875,10.331c9.782,0,18.091-0.998,24.928-2.994s13.899-5.041,21.185-9.133l11.828,26.949
		c-6.488,5.29-15.271,9.732-26.351,13.325S437.541,338.843,424.465,338.843z M421.621,204.395c-8.784,0-15.546,3.019-20.287,9.058
		s-7.611,14.049-8.609,24.03l0.299,0.749h53.3v-3.294c0-9.482-1.946-16.943-5.839-22.383
		C436.593,207.115,430.304,204.395,421.621,204.395z"/>
	<path fill="#3D3C3E" d="M546.15,335.699h-43.718V102.137h43.718V335.699z"/>
	<path fill="#22BDAF" d="M636.568,305.306c7.586,0,13.625-2.271,18.116-6.812c4.492-4.542,6.737-10.605,6.737-18.191h39.825
		l0.299,0.898c0.399,16.369-5.689,30.069-18.266,41.098c-12.576,11.029-28.147,16.544-46.713,16.544
		c-23.955,0-42.47-7.661-55.546-22.982c-13.075-15.321-19.613-34.91-19.613-58.765v-4.492c0-23.755,6.513-43.344,19.539-58.765
		s31.466-23.132,55.321-23.132c19.763,0,35.683,5.689,47.76,17.068s17.916,26.351,17.517,44.916l-0.299,0.898H661.42
		c0-8.384-2.221-15.346-6.662-20.886s-10.605-8.309-18.49-8.309c-11.279,0-19.289,4.517-24.03,13.55s-7.112,20.586-7.112,34.66
		v4.492c0,14.373,2.371,26.001,7.112,34.885S625.089,305.306,636.568,305.306z"/>
	<path fill="#22BDAF" d="M813.075,311.743c-4.991,8.684-11.329,15.371-19.014,20.062c-7.686,4.691-16.619,7.037-26.8,7.037
		c-17.068,0-30.418-5.789-40.05-17.367s-14.448-29.545-14.448-53.899v-93.874h43.568v94.173c0,14.173,1.921,23.88,5.764,29.12
		c3.843,5.24,9.807,7.86,17.891,7.86c6.987,0,12.976-1.123,17.966-3.369s9.083-5.565,12.277-9.956V173.701h43.718v161.996h-41.173
		L813.075,311.743z"/>
	<path fill="#22BDAF" d="M950.006,211.282l-16.02-0.449c-6.488,0-11.828,1.347-16.02,4.042s-7.386,6.488-9.582,11.379v109.445
		h-43.568V173.703h42.183l0.337,23.955c3.793-8.484,8.709-15.097,14.747-19.838c6.039-4.741,13.001-7.112,20.886-7.112
		c2.196,0,4.217,0.175,6.064,0.524s3.718,0.774,5.614,1.273L950.006,211.282z"/>
	<path fill="#22BDAF" d="M1028.571,338.843c-24.155,0-43.019-7.411-56.594-22.233s-20.362-33.911-20.362-57.268v-5.989
		c0-24.255,6.588-44.117,19.763-59.588s31.291-23.157,54.348-23.057c21.759,0,38.453,6.663,50.081,19.988
		c11.628,13.325,17.442,31.266,17.442,53.824v22.608H996.68l-0.449,0.898c0.699,11.079,4.067,20.062,10.106,26.949
		s14.997,10.331,26.875,10.331c9.782,0,18.091-0.998,24.928-2.994s13.899-5.041,21.185-9.133l11.828,26.949
		c-6.488,5.29-15.271,9.732-26.351,13.325S1041.647,338.843,1028.571,338.843z M1025.727,204.395
		c-8.784,0-15.546,3.019-20.287,9.058c-4.741,6.039-7.611,14.049-8.609,24.03l0.299,0.749h53.3v-3.294
		c0-9.482-1.946-16.943-5.839-22.383C1040.699,207.115,1034.411,204.395,1025.727,204.395z"/>
	<rect x="161.718" y="174.793" fill="#5C7F7B" width="21.707" height="21.707"/>
	<rect x="183.426" y="153.086" fill="#22BDAF" width="21.707" height="21.707"/>
</g>
</svg>
